<?xml version="1.0" standalone="no"?>
<!DOCTYPE svg PUBLIC "-//W3C//DTD SVG 20010904//EN"
 "http://www.w3.org/TR/2001/REC-SVG-20010904/DTD/svg10.dtd">
<svg version="1.0" xmlns="http://www.w3.org/2000/svg"
 width="512.000000pt" height="512.000000pt" viewBox="0 0 512.000000 512.000000"
 preserveAspectRatio="xMidYMid meet">
<g transform="translate(0.000000,512.000000) scale(0.100000,-0.100000)"
fill="#e8e9ed" stroke="none">
<path d="M3519 3086 c-266 -56 -463 -241 -514 -483 -19 -87 -19 -219 0 -308
18 -87 81 -214 137 -279 85 -98 253 -205 458 -289 252 -105 364 -171 404 -240
76 -129 20 -269 -130 -328 -48 -19 -78 -23 -164 -23 -128 -1 -210 24 -299 89
-53 39 -79 67 -156 168 l-20 26 -189 -109 c-104 -60 -193 -113 -197 -117 -10
-10 31 -82 93 -161 104 -133 287 -247 483 -299 90 -24 118 -26 285 -27 163 -1
195 2 275 23 348 91 535 319 535 651 0 185 -61 347 -175 463 -108 112 -242
190 -545 322 -91 39 -192 88 -223 109 -193 128 -135 383 93 403 116 11 222
-43 293 -150 l38 -57 39 25 c22 14 105 68 185 120 166 108 159 89 79 202 -86
122 -228 219 -379 259 -83 22 -320 28 -406 10z"/>
<path d="M2108 2203 c-3 -708 -6 -896 -17 -928 -7 -22 -32 -59 -55 -81 -33
-34 -53 -44 -101 -54 -155 -32 -250 14 -352 172 -41 63 -46 67 -66 57 -66 -35
-288 -155 -325 -176 l-43 -24 32 -59 c93 -175 258 -301 464 -356 99 -26 360
-26 460 0 238 62 394 216 461 456 17 60 19 130 22 973 l3 907 -240 0 -240 0
-3 -887z"/>
</g>
</svg>
