<?xml version="1.0" standalone="no"?>
<!DOCTYPE svg PUBLIC "-//W3C//DTD SVG 20010904//EN"
 "http://www.w3.org/TR/2001/REC-SVG-20010904/DTD/svg10.dtd">
<svg version="1.0" xmlns="http://www.w3.org/2000/svg"
 width="375.000000pt" height="375.000000pt" viewBox="0 0 375.000000 375.000000"
 preserveAspectRatio="xMidYMid meet">
<metadata>
Created by potrace 1.16, written by Peter Selinger 2001-2019
</metadata>
<g transform="translate(0.000000,375.000000) scale(0.100000,-0.100000)"
fill="#e8e9ed" stroke="none">
<path d="M1193 3566 c-133 -43 -247 -169 -309 -341 -31 -84 -61 -238 -67 -342
l-5 -83 47 0 47 0 12 74 c19 121 47 183 116 252 43 42 76 66 110 77 67 23 160
22 214 -3 92 -42 182 -169 251 -357 31 -84 94 -326 106 -404 7 -45 -3 -68
-499 -1136 -278 -600 -506 -1093 -506 -1096 0 -4 103 -7 228 -7 l229 0 348
791 c260 589 351 787 357 773 4 -11 57 -242 117 -514 115 -518 149 -646 202
-770 65 -154 116 -210 249 -274 59 -28 74 -31 165 -31 89 0 106 3 156 27 76
38 162 130 201 215 40 88 66 219 75 366 l6 118 -49 -3 -49 -3 -7 -55 c-19
-137 -83 -246 -172 -293 -56 -30 -163 -30 -227 0 -102 46 -177 140 -238 298
-58 148 -87 259 -236 925 -259 1151 -310 1345 -413 1544 -85 166 -203 256
-345 262 -43 3 -89 -2 -114 -10z"/>
</g>
</svg>
