<?xml version="1.0" standalone="no"?>
<!DOCTYPE svg PUBLIC "-//W3C//DTD SVG 20010904//EN"
 "http://www.w3.org/TR/2001/REC-SVG-20010904/DTD/svg10.dtd">
<svg version="1.0" xmlns="http://www.w3.org/2000/svg"
 width="600.000000pt" height="600.000000pt" viewBox="0 0 600.000000 600.000000"
 preserveAspectRatio="xMidYMid meet">

<g transform="translate(0.000000,600.000000) scale(0.100000,-0.100000)"
fill="#e8e9ed" stroke="none">
<path d="M0 3000 l0 -3000 3000 0 3000 0 0 3000 0 3000 -3000 0 -3000 0 0
-3000z m4850 235 c106 -34 177 -70 257 -128 63 -47 188 -185 220 -244 21 -39
41 -21 -192 -177 -228 -152 -213 -145 -242 -110 -118 144 -160 173 -272 194
-111 20 -210 -8 -273 -78 -85 -94 -73 -253 26 -340 53 -46 107 -75 331 -177
352 -160 472 -232 596 -356 63 -62 85 -93 122 -170 66 -138 81 -207 82 -379 0
-165 -13 -230 -70 -345 -111 -227 -350 -380 -665 -426 -106 -15 -380 -7 -470
15 -144 34 -312 106 -418 178 -74 50 -204 186 -260 273 -29 43 -52 84 -52 90
0 5 12 17 28 26 15 9 117 68 226 132 l200 116 30 -42 c150 -210 292 -290 511
-291 127 -1 194 16 269 65 134 89 153 274 40 384 -47 47 -214 136 -409 220
-418 181 -601 339 -692 597 -36 99 -45 330 -18 441 36 152 125 295 239 388 73
59 216 131 306 152 36 9 74 18 85 21 11 3 101 3 200 2 163 -4 188 -7 265 -31z
m-1422 -247 l2 -248 -390 0 -390 0 0 -1110 0 -1110 -280 0 -280 0 0 1110 0
1110 -392 0 -391 0 6 188 c4 103 7 215 7 250 l0 62 1053 -2 1052 -3 3 -247z"/>
</g>
</svg>
