<?xml version="1.0" standalone="no"?>
<!DOCTYPE svg PUBLIC "-//W3C//DTD SVG 20010904//EN"
 "http://www.w3.org/TR/2001/REC-SVG-20010904/DTD/svg10.dtd">
<svg version="1.0" xmlns="http://www.w3.org/2000/svg"
 width="1200.000000pt" height="1200.000000pt" viewBox="0 0 1200.000000 1200.000000"
 preserveAspectRatio="xMidYMid meet">

<g transform="translate(0.000000,1200.000000) scale(0.100000,-0.100000)"
fill="#e8e9ed" stroke="none">
<path d="M5740 11993 c-1619 -69 -3143 -794 -4224 -2008 -1199 -1347 -1727
-3168 -1436 -4953 383 -2346 2121 -4248 4425 -4842 1381 -356 2865 -203 4140
425 1725 851 2940 2472 3265 4360 64 370 84 622 84 1025 0 394 -20 648 -80
1005 -273 1615 -1200 3051 -2565 3972 -1060 715 -2326 1072 -3609 1016z m394
-1369 c147 -38 296 -153 369 -285 42 -74 77 -199 77 -270 l0 -47 81 -48 c497
-291 941 -943 1228 -1801 270 -808 400 -1787 363 -2731 -20 -506 -65 -897
-152 -1332 -53 -265 -161 -669 -190 -717 -20 -32 -64 -53 -110 -53 -34 0 -48
6 -75 33 -54 54 -53 68 5 274 428 1516 356 3366 -185 4738 -66 168 -241 519
-323 650 -192 303 -391 523 -616 677 -82 56 -91 60 -100 43 -58 -97 -162 -197
-257 -246 -66 -33 -180 -59 -261 -59 -104 0 -168 15 -265 61 -371 177 -454
668 -162 956 120 119 247 172 413 173 59 0 123 -6 160 -16z m-1804 -1928 c214
-26 393 -57 422 -74 59 -35 76 -134 31 -184 -42 -48 -70 -51 -246 -24 -276 42
-390 51 -672 51 -283 0 -371 -8 -581 -50 -855 -172 -1223 -760 -988 -1578 44
-153 107 -306 205 -496 43 -84 79 -162 79 -173 0 -72 -67 -132 -138 -125 -63
7 -90 39 -176 206 -263 515 -348 975 -254 1376 55 238 156 415 337 596 286
285 680 440 1251 493 102 9 601 -3 730 -18z m4140 -2 c674 -77 1151 -351 1372
-789 83 -164 121 -296 138 -488 45 -479 -167 -1078 -591 -1672 -119 -167 -264
-347 -296 -367 -16 -10 -47 -18 -70 -18 -72 0 -133 72 -119 142 4 21 48 86
122 178 251 316 441 629 558 922 117 294 163 546 144 799 -33 449 -325 784
-827 949 -188 62 -387 95 -643 109 -170 8 -194 17 -222 76 -20 41 -20 68 -1
109 26 55 56 65 185 66 63 0 176 -7 250 -16z m-1310 -109 c75 -39 80 -158 10
-212 -8 -6 -76 -26 -150 -44 -1050 -247 -2148 -793 -3075 -1528 -363 -288
-750 -671 -1022 -1013 -422 -529 -670 -1074 -690 -1514 l-6 -121 81 -7 c163
-13 290 -74 400 -190 71 -76 131 -189 151 -284 66 -319 -146 -640 -469 -708
-257 -54 -537 83 -648 317 -22 46 -45 106 -52 134 -15 64 -15 207 1 270 36
148 134 287 260 369 l26 16 6 178 c7 214 34 355 108 577 128 378 339 747 652
1140 927 1162 2551 2184 4092 2576 247 63 280 67 325 44z m-1104 -2416 c155
-28 284 -139 335 -287 25 -72 27 -198 4 -268 -68 -203 -277 -332 -481 -297
-417 72 -498 635 -117 815 93 44 165 54 259 37z m-2944 -718 c13 -5 102 -88
198 -186 407 -412 828 -751 1325 -1067 998 -635 2020 -1022 3015 -1144 179
-22 663 -26 810 -6 146 20 326 58 429 92 120 39 273 110 267 124 -78 173 -91
294 -49 446 89 324 449 515 765 406 98 -35 154 -70 233 -150 150 -151 207
-357 155 -560 -29 -113 -73 -190 -160 -277 -87 -88 -181 -140 -300 -165 -143
-30 -327 3 -433 78 l-29 21 -126 -61 c-211 -102 -453 -168 -742 -204 -158 -20
-647 -16 -835 6 -1210 141 -2524 697 -3665 1550 -403 302 -992 848 -1020 947
-28 98 67 186 162 150z m1174 -2097 c42 -20 45 -24 115 -204 275 -708 659
-1222 1081 -1449 181 -98 343 -136 543 -128 236 10 426 83 647 250 172 129
340 318 505 565 60 90 105 148 123 157 84 44 180 -15 180 -111 0 -27 -13 -58
-47 -113 -325 -523 -720 -855 -1152 -968 -131 -34 -373 -43 -506 -19 -516 97
-970 486 -1341 1151 -139 249 -313 656 -322 750 -4 45 -1 55 24 84 44 53 90
63 150 35z"/>
<path d="M5850 10368 c-77 -30 -160 -114 -190 -193 -42 -111 -27 -232 40 -331
66 -95 179 -149 300 -142 156 9 272 102 316 254 45 154 -32 325 -181 402 -71
37 -206 42 -285 10z"/>
<path d="M2197 3889 c-107 -25 -209 -114 -247 -217 -18 -47 -21 -72 -18 -142
6 -106 33 -166 112 -238 70 -63 134 -87 236 -86 130 0 235 65 301 186 32 58
34 70 34 153 0 76 -4 99 -26 145 -49 106 -128 171 -238 196 -63 15 -99 16
-154 3z"/>
<path d="M9607 3890 c-221 -56 -334 -298 -233 -497 34 -67 122 -147 188 -170
34 -11 81 -18 128 -17 133 0 242 69 302 192 29 59 33 76 33 152 0 72 -4 94
-28 145 -36 77 -110 147 -184 175 -65 24 -153 33 -206 20z"/>
</g>
</svg>
