<?xml version="1.0" standalone="no"?>
<!DOCTYPE svg PUBLIC "-//W3C//DTD SVG 20010904//EN"
 "http://www.w3.org/TR/2001/REC-SVG-20010904/DTD/svg10.dtd">
<svg version="1.0" xmlns="http://www.w3.org/2000/svg"
 width="500.000000pt" height="500.000000pt" viewBox="0 0 500.000000 500.000000"
 preserveAspectRatio="xMidYMid meet">

<g transform="translate(0.000000,500.000000) scale(0.100000,-0.100000)"
fill="#e8e9ed" stroke="none">
<path d="M1045 4990 c-434 -21 -603 -75 -781 -254 -154 -154 -213 -300 -246
-616 -19 -178 -19 -3056 0 -3239 31 -304 83 -444 221 -593 149 -161 291 -226
576 -265 104 -14 304 -17 1520 -20 920 -3 1474 -1 1617 6 430 22 601 75 776
244 108 105 176 221 213 367 51 196 52 220 56 1675 5 1388 -2 1780 -32 1960
-38 230 -95 348 -234 485 -152 150 -294 207 -601 241 -122 14 -2821 21 -3085
9z m1275 -2372 c0 -645 -4 -1201 -9 -1235 -18 -120 -86 -209 -199 -261 -52
-24 -69 -26 -237 -30 -291 -7 -396 17 -480 109 -52 58 -75 112 -85 202 -13
105 -13 1954 -1 2068 11 99 33 149 93 214 45 50 107 83 175 95 27 4 204 8 396
9 l347 1 0 -1172z m1215 1132 c208 -53 374 -220 430 -430 19 -72 19 -220 0
-294 -43 -165 -163 -311 -315 -384 -105 -50 -183 -66 -297 -60 -155 8 -283 68
-398 185 -96 98 -165 269 -165 408 0 136 63 294 158 397 155 167 372 233 587
178z"/>
</g>
</svg>
